<svg width="132" height="132" viewBox="0 0 132 132" fill="none" xmlns="http://www.w3.org/2000/svg">
<rect width="131.404" height="131.4" rx="16" fill="white"/>
<path d="M24.3429 51.6526L40.1821 67.4918L30.226 77.4479C29.5623 78.1116 29.2304 78.8055 29.2304 79.5296C29.2907 80.1933 29.7131 80.9174 30.4975 81.7018L31.4931 82.6974C32.2775 83.4818 33.0016 83.9042 33.6654 83.9646C34.3894 83.9646 35.0833 83.6327 35.7471 82.969L80.5494 38.1667L96.3886 54.0059L49.5046 100.89C46.1255 104.269 42.3845 105.958 38.2814 105.958C34.2386 106.019 29.8036 103.635 24.9764 98.8082L14.3868 88.2185C9.55962 83.3913 7.14602 78.9262 7.14602 74.8231C7.20636 70.7803 8.92605 67.0694 12.3051 63.6904L24.3429 51.6526Z" fill="black"/>
<path d="M67.5057 91.2082L83.3449 75.369L93.301 85.325C93.9647 85.9888 94.6586 86.3206 95.3827 86.3206C96.0464 86.2603 96.7705 85.8379 97.5549 85.0535L98.5505 84.0579C99.3349 83.2735 99.7573 82.5494 99.8177 81.8857C99.8177 81.1616 99.4858 80.4677 98.822 79.8039L54.0198 35.0017L69.859 19.1625L116.743 66.0465C120.122 69.4255 121.812 73.1666 121.812 77.2697C121.872 81.3124 119.488 85.7474 114.661 90.5746L104.072 101.164C99.2444 105.991 94.7793 108.405 90.6762 108.405C86.6334 108.345 82.9225 106.625 79.5435 103.246L67.5057 91.2082Z" fill="black"/>
</svg>
